Coordinates
version=1
nRows=7
nColumns=38
inDegrees=yes

Units are S.I. units (second, meters, Newtons, ...)
If the header above contains a line with 'inDegrees', this indicates whether rotational values are in degrees (yes) or radians (no).

endheader
time	pelvis_tilt	pelvis_list	pelvis_rotation	pelvis_tx	pelvis_ty	pelvis_tz	hip_flexion_r	hip_adduction_r	hip_rotation_r	knee_angle_r	knee_angle_r_beta	ankle_angle_r	subtalar_angle_r	mtp_angle_r	hip_flexion_l	hip_adduction_l	hip_rotation_l	knee_angle_l	knee_angle_l_beta	ankle_angle_l	subtalar_angle_l	mtp_angle_l	lumbar_extension	lumbar_bending	lumbar_rotation	arm_flex_r	arm_add_r	arm_rot_r	elbow_flex_r	pro_sup_r	radius_hand_r_lock	arm_flex_l	arm_add_l	arm_rot_l	elbow_flex_l	pro_sup_l	radius_hand_l_lock
      2.65833333	    -82.48462169	      1.65892634	   -183.09021026	      0.93473289	      0.39257379	     -0.61386109	     15.15147073	     -2.50107003	    -12.34176849	      9.85342417	      0.17197469	     34.29752480	      4.09450851	     -7.49999987	     14.33774440	     -8.15456891	    -14.33827105	     14.16333575	      0.24719684	     35.07167721	     -0.07976691	     -7.49999987	    -14.68336207	      3.41354122	     -2.84028890	    -23.78627570	    -15.08353030	    -19.24236746	     15.51227030	    100.85339112	      0.00000000	    -30.02535600	    -13.05513683	    -26.63029985	     26.42806925	    111.05224146	      0.00000000
      2.66666667	    -82.80557111	      1.88256378	   -182.97020796	      0.93511724	      0.39339296	     -0.61325496	     14.71215646	     -2.29560081	    -12.61810928	      9.87883918	      0.17241827	     34.31400462	      4.05273070	     -7.49999987	     14.02806736	     -8.34858787	    -14.18684538	     14.33133347	      0.25012896	     35.10188347	     -0.08248204	     -7.49999987	    -14.82197744	      3.72699772	     -2.81490395	    -23.70861272	    -14.97274547	    -19.04986844	     15.59608525	     97.65061048	      0.00000000	    -29.62213581	    -13.03544990	    -25.42045858	     26.25966923	    108.94562254	      0.00000000
      2.67500000	    -83.04712335	      1.84377079	   -183.15300872	      0.93530105	      0.39429706	     -0.61319896	     14.45730747	     -2.31556134	    -12.52103704	      9.91661274	      0.17307754	     34.46161711	      4.08518597	     -7.49999987	     13.66812608	     -8.30670752	    -14.33458063	     14.35004830	      0.25045559	     35.18282765	      0.12363235	     -7.49999987	    -14.82888905	      3.68391665	     -2.68394947	    -23.54660173	    -14.86917390	    -18.74941414	     15.60778364	     95.79946322	      0.00000000	    -29.15553970	    -13.10962639	    -24.36573220	     26.08129292	    107.48223281	      0.00000000
      2.68333333	    -83.12259248	      1.71588881	   -183.10373670	      0.93499314	      0.39483949	     -0.61271441	     14.32022429	     -2.49853965	    -12.44471778	      9.63433229	      0.16815082	     34.69706034	      4.45465218	     -7.49999987	     13.71332810	     -8.11006095	    -14.02035995	     14.56752922	      0.25425135	     35.22158622	     -0.14636263	     -7.49999987	    -14.65835692	      3.59981518	     -2.83414137	    -23.37395317	    -14.69874370	    -19.97063138	     15.58882573	    100.93324833	      0.00000000	    -28.80335479	    -13.05316685	    -24.50050863	     25.83538894	    111.12580285	      0.00000000
      2.69166667	    -83.33003676	      1.73998578	   -183.19324687	      0.93523878	      0.39565500	     -0.61257110	     14.15397942	     -2.50958193	    -12.31923245	      9.96682420	      0.17395390	     34.77710004	      4.32944388	     -7.49999987	     13.43210546	     -8.11813940	    -13.99556469	     14.56528666	      0.25421221	     35.35094024	     -0.17195711	     -7.49999987	    -14.62734716	      3.63902661	     -2.74662074	    -23.04408463	    -14.67154579	    -18.88035572	     15.09146459	     99.94413100	      0.00000000	    -28.41049556	    -13.07190246	    -23.24530042	     25.59872296	    110.31405229	      0.00000000
      2.70000000	    -83.53215141	      1.78158351	   -183.09580110	      0.93536822	      0.39640669	     -0.61207217	     13.97339136	     -2.55054639	    -12.52260259	     10.17390929	      0.17756821	     34.90467316	      4.35573959	     -7.49999987	     13.28376046	     -8.12687922	    -13.83494088	     14.78393869	      0.25802841	     35.52516846	     -0.26724501	     -7.49999987	    -14.60124972	      3.75145034	     -2.81535483	    -22.77484652	    -14.57322539	    -18.49500924	     14.90391344	     99.74616465	      0.00000000	    -27.97361267	    -13.00888081	    -22.67607291	     25.41579890	    110.61222021	      0.00000000
      2.70833333	    -83.76153075	      1.70055243	   -183.12340342	      0.93537787	      0.39727891	     -0.61175203	     13.65467764	     -2.66699123	    -12.39143322	      9.94675808	      0.17360368	     35.01609990	      4.60198235	     -7.49999987	     13.04151098	     -8.04061251	    -14.01714256	     14.97416110	      0.26134841	     35.60545758	     -0.19155983	     -7.49999987	    -14.59508359	      3.68350293	     -2.82141479	    -22.43450421	    -14.51691359	    -17.27233439	     14.56679923	     98.40954243	      0.00000000	    -27.58400255	    -13.00901709	    -21.55864683	     25.16162455	    109.60630967	      0.00000000
